{
  "accessors": [
    {
      "name": "Right_Eye_Sphere.003_1_positions",
      "componentType": 5126,
      "count": 3170,
      "min": [
        -2.40545392036438,
        -2.228972911834717,
        -9.441988945007324
      ],
      "max": [
        2.60561203956604,
        2.2288661003112793,
        -4.984665870666504
      ],
      "type": "VEC3",
      "bufferView": 0,
      "byteOffset": 0
    },
    {
      "name": "Right_Eye_Sphere.003_1_normals",
      "componentType": 5126,
      "count": 3170,
      "min": [
        -0.9995999932289124,
        -1,
        -1
      ],
      "max": [
        0.9994999766349792,
        1,
        1
      ],
      "type": "VEC3",
      "bufferView": 0,
      "byteOffset": 108936
    },
    {
      "name": "Right_Eye_Sphere.003_1_texcoords",
      "componentType": 5126,
      "count": 3170,
      "min": [
        0.002099999925121665,
        0.003700000001117587
      ],
      "max": [
        0.9975000023841858,
        0.9958999752998352
      ],
      "type": "VEC2",
      "bufferView": 1,
      "byteOffset": 0
    },
    {
      "name": "Right_Eye_Sphere.003_1_0_indices",
      "componentType": 5123,
      "count": 18720,
      "min": [
        0
      ],
      "max": [
        3169
      ],
      "type": "SCALAR",
      "bufferView": 2,
      "byteOffset": 0
    },
    {
      "name": "Right_Iris_Sphere.002_1_positions",
      "componentType": 5126,
      "count": 1369,
      "min": [
        1.3947949409484863,
        -1.0990829467773438,
        -8.40908145904541
      ],
      "max": [
        1.8819689750671387,
        1.2891689538955688,
        -6.017573833465576
      ],
      "type": "VEC3",
      "bufferView": 0,
      "byteOffset": 38040
    },
    {
      "name": "Right_Iris_Sphere.002_1_normals",
      "componentType": 5126,
      "count": 1369,
      "min": [
        -0.23389999568462372,
        -1,
        -0.9994999766349792
      ],
      "max": [
        1,
        0.9994999766349792,
        0.9994000196456909
      ],
      "type": "VEC3",
      "bufferView": 0,
      "byteOffset": 146976
    },
    {
      "name": "Right_Iris_Sphere.002_1_texcoords",
      "componentType": 5126,
      "count": 1369,
      "min": [
        0,
        0.0949999988079071
      ],
      "max": [
        0.9107999801635742,
        1
      ],
      "type": "VEC2",
      "bufferView": 1,
      "byteOffset": 25360
    },
    {
      "name": "Right_Iris_Sphere.002_1_0_indices",
      "componentType": 5123,
      "count": 7488,
      "min": [
        0
      ],
      "max": [
        1368
      ],
      "type": "SCALAR",
      "bufferView": 2,
      "byteOffset": 37440
    },
    {
      "name": "Left_Iris_Sphere.001_1_positions",
      "componentType": 5126,
      "count": 1369,
      "min": [
        1.4339770078659058,
        -1.1447149515151978,
        -1.245398998260498
      ],
      "max": [
        1.9601060152053833,
        1.3426929712295532,
        1.2453999519348145
      ],
      "type": "VEC3",
      "bufferView": 0,
      "byteOffset": 54468
    },
    {
      "name": "Left_Iris_Sphere.001_1_normals",
      "componentType": 5126,
      "count": 1369,
      "min": [
        -0.20149999856948853,
        -0.9998999834060669,
        -0.9993000030517578
      ],
      "max": [
        1,
        0.9991999864578247,
        0.9993000030517578
      ],
      "type": "VEC3",
      "bufferView": 0,
      "byteOffset": 163404
    },
    {
      "name": "Left_Iris_Sphere.001_1_texcoords",
      "componentType": 5126,
      "count": 1369,
      "min": [
        0,
        0.0949999988079071
      ],
      "max": [
        0.9107999801635742,
        1
      ],
      "type": "VEC2",
      "bufferView": 1,
      "byteOffset": 36312
    },
    {
      "name": "Left_Iris_Sphere.001_1_0_indices",
      "componentType": 5123,
      "count": 7488,
      "min": [
        0
      ],
      "max": [
        1368
      ],
      "type": "SCALAR",
      "bufferView": 2,
      "byteOffset": 52416
    },
    {
      "name": "Left_Eye_Sphere_1_positions",
      "componentType": 5126,
      "count": 3170,
      "min": [
        -2.40545392036438,
        -2.228972911834717,
        -2.228661060333252
      ],
      "max": [
        2.60561203956604,
        2.2288661003112793,
        2.2286620140075684
      ],
      "type": "VEC3",
      "bufferView": 0,
      "byteOffset": 70896
    },
    {
      "name": "Left_Eye_Sphere_1_normals",
      "componentType": 5126,
      "count": 3170,
      "min": [
        -0.9995999932289124,
        -1,
        -1
      ],
      "max": [
        0.9994999766349792,
        1,
        1
      ],
      "type": "VEC3",
      "bufferView": 0,
      "byteOffset": 179832
    },
    {
      "name": "Left_Eye_Sphere_1_texcoords",
      "componentType": 5126,
      "count": 3170,
      "min": [
        0.002099999925121665,
        0.003700000001117587
      ],
      "max": [
        0.9975000023841858,
        0.9958999752998352
      ],
      "type": "VEC2",
      "bufferView": 1,
      "byteOffset": 47264
    },
    {
      "name": "Left_Eye_Sphere_1_0_indices",
      "componentType": 5123,
      "count": 18720,
      "min": [
        0
      ],
      "max": [
        3169
      ],
      "type": "SCALAR",
      "bufferView": 2,
      "byteOffset": 67392
    }
  ],
  "asset": {
    "generator": "obj2gltf",
    "version": "2.0"
  },
  "buffers": [
    {
      "name": "Eyes",
      "byteLength": 395328,
      "uri": "data:application/octet-stream;base64,"
    }
  ],
  "bufferViews": [
    {
      "name": "bufferView_0",
      "buffer": 0,
      "byteLength": 217872,
      "byteOffset": 0,
      "byteStride": 12,
      "target": 34962
    },
    {
      "name": "bufferView_1",
      "buffer": 0,
      "byteLength": 72624,
      "byteOffset": 217872,
      "byteStride": 8,
      "target": 34962
    },
    {
      "name": "bufferView_2",
      "buffer": 0,
      "byteLength": 104832,
      "byteOffset": 290496,
      "target": 34963
    }
  ],
  "materials": [
    {
      "name": "Material.002",
      "pbrMetallicRoughness": {
        "baseColorFactor": [
          0.64,
          0.64,
          0.64,
          1
        ],
        "metallicFactor": 0,
        "roughnessFactor": 0.903921569
      },
      "emissiveFactor": [
        0,
        0,
        0
      ],
      "alphaMode": "OPAQUE",
      "doubleSided": false
    },
    {
      "name": "Material.003",
      "pbrMetallicRoughness": {
        "baseColorFactor": [
          0.64,
          0.64,
          0.64,
          1
        ],
        "metallicFactor": 0,
        "roughnessFactor": 0.903921569
      },
      "emissiveFactor": [
        0,
        0,
        0
      ],
      "alphaMode": "OPAQUE",
      "doubleSided": false
    },
    {
      "name": "Material.000",
      "pbrMetallicRoughness": {
        "baseColorFactor": [
          0.64,
          0.64,
          0.64,
          1
        ],
        "metallicFactor": 0,
        "roughnessFactor": 0.903921569
      },
      "emissiveFactor": [
        0,
        0,
        0
      ],
      "alphaMode": "OPAQUE",
      "doubleSided": false
    },
    {
      "name": "Material.001",
      "pbrMetallicRoughness": {
        "baseColorFactor": [
          0.64,
          0.64,
          0.64,
          1
        ],
        "metallicFactor": 0,
        "roughnessFactor": 0.903921569
      },
      "emissiveFactor": [
        0,
        0,
        0
      ],
      "alphaMode": "OPAQUE",
      "doubleSided": false
    }
  ],
  "meshes": [
    {
      "name": "Right_Eye_Sphere.003_1",
      "primitives": [
        {
          "attributes": {
            "POSITION": 0,
            "NORMAL": 1,
            "TEXCOORD_0": 2
          },
          "indices": 3,
          "material": 0,
          "mode": 4
        }
      ]
    },
    {
      "name": "Right_Iris_Sphere.002_1",
      "primitives": [
        {
          "attributes": {
            "POSITION": 4,
            "NORMAL": 5,
            "TEXCOORD_0": 6
          },
          "indices": 7,
          "material": 1,
          "mode": 4
        }
      ]
    },
    {
      "name": "Left_Iris_Sphere.001_1",
      "primitives": [
        {
          "attributes": {
            "POSITION": 8,
            "NORMAL": 9,
            "TEXCOORD_0": 10
          },
          "indices": 11,
          "material": 2,
          "mode": 4
        }
      ]
    },
    {
      "name": "Left_Eye_Sphere_1",
      "primitives": [
        {
          "attributes": {
            "POSITION": 12,
            "NORMAL": 13,
            "TEXCOORD_0": 14
          },
          "indices": 15,
          "material": 3,
          "mode": 4
        }
      ]
    }
  ],
  "nodes": [
    {
      "name": "Right_Eye_Sphere.003",
      "mesh": 0
    },
    {
      "name": "Right_Iris_Sphere.002",
      "mesh": 1
    },
    {
      "name": "Left_Iris_Sphere.001",
      "mesh": 2
    },
    {
      "name": "Left_Eye_Sphere",
      "mesh": 3
    }
  ],
  "scene": 0,
  "scenes": [
    {
      "nodes": [
        0,
        1,
        2,
        3
      ]
    }
  ]
}
